TITLE ""
FILE "P1Q_t_1359-1368.mp3" MP3
  TRACK 01 AUDIO
    TITLE "P1Q_t_1359-1368_01"
    INDEX 01 00:00:00
  TRACK 02 AUDIO
    TITLE "P1Q_t_1359-1368_02"
    INDEX 01 00:01:23
  TRACK 03 AUDIO
    TITLE "P1Q_t_1359-1368_03"
    INDEX 01 00:01:45
  TRACK 04 AUDIO
    TITLE "P1Q_t_1359-1368_04"
    INDEX 01 00:06:58
  TRACK 05 AUDIO
    TITLE "P1Q_t_1359-1368_05"
    INDEX 01 00:07:04
  TRACK 06 AUDIO
    TITLE "P1Q_t_1359-1368_06"
    INDEX 01 00:11:10
  TRACK 07 AUDIO
    TITLE "P1Q_t_1359-1368_07"
    INDEX 01 00:11:55
  TRACK 08 AUDIO
    TITLE "P1Q_t_1359-1368_08"
    INDEX 01 00:12:62
  TRACK 09 AUDIO
    TITLE "P1Q_t_1359-1368_09"
    INDEX 01 00:13:07
  TRACK 10 AUDIO
    TITLE "P1Q_t_1359-1368_10"
    INDEX 01 00:18:06
  TRACK 11 AUDIO
    TITLE "P1Q_t_1359-1368_11"
    INDEX 01 00:18:28
  TRACK 12 AUDIO
    TITLE "P1Q_t_1359-1368_12"
    INDEX 01 00:23:21
  TRACK 13 AUDIO
    TITLE "P1Q_t_1359-1368_13"
    INDEX 01 00:23:64
  TRACK 14 AUDIO
    TITLE "P1Q_t_1359-1368_14"
    INDEX 01 00:25:26
  TRACK 15 AUDIO
    TITLE "P1Q_t_1359-1368_15"
    INDEX 01 00:25:46
  TRACK 16 AUDIO
    TITLE "P1Q_t_1359-1368_16"
    INDEX 01 00:28:67
  TRACK 17 AUDIO
    TITLE "P1Q_t_1359-1368_17"
    INDEX 01 00:29:12
  TRACK 18 AUDIO
    TITLE "P1Q_t_1359-1368_18"
    INDEX 01 00:33:53
  TRACK 19 AUDIO
    TITLE "P1Q_t_1359-1368_19"
    INDEX 01 00:34:25
  TRACK 20 AUDIO
    TITLE "P1Q_t_1359-1368_20"
    INDEX 01 00:35:38
  TRACK 21 AUDIO
    TITLE "P1Q_t_1359-1368_21"
    INDEX 01 00:35:60
  TRACK 22 AUDIO
    TITLE "P1Q_t_1359-1368_22"
    INDEX 01 00:39:67
  TRACK 23 AUDIO
    TITLE "P1Q_t_1359-1368_23"
    INDEX 01 00:40:12
  TRACK 24 AUDIO
    TITLE "P1Q_t_1359-1368_24"
    INDEX 01 00:45:07
  TRACK 25 AUDIO
    TITLE "P1Q_t_1359-1368_25"
    INDEX 01 00:45:54
  TRACK 26 AUDIO
    TITLE "P1Q_t_1359-1368_26"
    INDEX 01 00:47:00
  TRACK 27 AUDIO
    TITLE "P1Q_t_1359-1368_27"
    INDEX 01 00:47:22
  TRACK 28 AUDIO
    TITLE "P1Q_t_1359-1368_28"
    INDEX 01 00:50:34
  TRACK 29 AUDIO
    TITLE "P1Q_t_1359-1368_29"
    INDEX 01 00:50:53
  TRACK 30 AUDIO
    TITLE "P1Q_t_1359-1368_30"
    INDEX 01 00:56:17
  TRACK 31 AUDIO
    TITLE "P1Q_t_1359-1368_31"
    INDEX 01 00:56:62
  TRACK 32 AUDIO
    TITLE "P1Q_t_1359-1368_32"
    INDEX 01 00:58:08
  TRACK 33 AUDIO
    TITLE "P1Q_t_1359-1368_33"
    INDEX 01 00:58:29
  TRACK 34 AUDIO
    TITLE "P1Q_t_1359-1368_34"
    INDEX 01 01:00:16
  TRACK 35 AUDIO
    TITLE "P1Q_t_1359-1368_35"
    INDEX 01 01:00:36
  TRACK 36 AUDIO
    TITLE "P1Q_t_1359-1368_36"
    INDEX 01 01:05:23
  TRACK 37 AUDIO
    TITLE "P1Q_t_1359-1368_37"
    INDEX 01 01:05:69
  TRACK 38 AUDIO
    TITLE "P1Q_t_1359-1368_38"
    INDEX 01 01:06:70
  TRACK 39 AUDIO
    TITLE "P1Q_t_1359-1368_39"
    INDEX 01 01:07:15
  TRACK 40 AUDIO
    TITLE "P1Q_t_1359-1368_40"
    INDEX 01 01:10:32
  TRACK 41 AUDIO
    TITLE "P1Q_t_1359-1368_41"
    INDEX 01 01:10:52
  TRACK 42 AUDIO
    TITLE "P1Q_t_1359-1368_42"
    INDEX 01 01:15:41
  TRACK 43 AUDIO
    TITLE "P1Q_t_1359-1368_43"
    INDEX 01 01:16:12
  TRACK 44 AUDIO
    TITLE "P1Q_t_1359-1368_44"
    INDEX 01 01:17:42
  TRACK 45 AUDIO
    TITLE "P1Q_t_1359-1368_45"
    INDEX 01 01:17:66
  TRACK 46 AUDIO
    TITLE "P1Q_t_1359-1368_46"
    INDEX 01 01:20:72
  TRACK 47 AUDIO
    TITLE "P1Q_t_1359-1368_47"
    INDEX 01 01:21:19
  TRACK 48 AUDIO
    TITLE "P1Q_t_1359-1368_48"
    INDEX 01 01:27:04
  TRACK 49 AUDIO
    TITLE "P1Q_t_1359-1368_49"
    INDEX 01 01:27:49
  TRACK 50 AUDIO
    TITLE "P1Q_t_1359-1368_50"
    INDEX 01 01:28:68
  TRACK 51 AUDIO
    TITLE "P1Q_t_1359-1368_51"
    INDEX 01 01:29:16
  TRACK 52 AUDIO
    TITLE "P1Q_t_1359-1368_52"
    INDEX 01 01:31:33
  TRACK 53 AUDIO
    TITLE "P1Q_t_1359-1368_53"
    INDEX 01 01:31:52
  TRACK 54 AUDIO
    TITLE "P1Q_t_1359-1368_54"
    INDEX 01 01:37:37
  TRACK 55 AUDIO
    TITLE "P1Q_t_1359-1368_55"
    INDEX 01 01:38:09
  TRACK 56 AUDIO
    TITLE "P1Q_t_1359-1368_56"
    INDEX 01 01:39:22
  TRACK 57 AUDIO
    TITLE "P1Q_t_1359-1368_57"
    INDEX 01 01:39:44
  TRACK 58 AUDIO
    TITLE "P1Q_t_1359-1368_58"
    INDEX 01 01:41:68
  TRACK 59 AUDIO
    TITLE "P1Q_t_1359-1368_59"
    INDEX 01 01:42:13
  TRACK 60 AUDIO
    TITLE "P1Q_t_1359-1368_60"
    INDEX 01 01:46:44
